:SAMPLES-PER-SECOND 30
:FULLY-SPECIFIED
:DEGREES
1
root  58.9357 40.4937 0.931724 -46.8873 -89.1953 46.2921
RightUpLeg  0.271459 -8.35634 -3.90565
RightLeg  5.13628 -7.29491 4.41285
RightFoot  -3.70046 0.0636411 -1.42973
RightToes  0.00048216 0.542163 -0.142577
Spine  7.27672 1.1321 -3.36155
Spine1  -2.04289 0.462206 3.75652
HEad  6.66322 -6.02132 0.965851
LeftShoulder1  1.06819 -3.81358 -6.93142
LeftArm  -19.3015 22.0756 -12.7388
LeftForeArm  18.5303 -5.13058 -0.194298
LeftHand  -0.25398 0.0180481 5.50724
RightShoulder  0.386126 -0.743475 6.30514
RightArm  -21.4934 -11.8095 6.62517
RightForeArm  0.533005 6.34169 2.47517
RightHand  -3.25464 10.3028 -24.1831
LeftUpLeg  0.158884 4.71811 0.714567
LeftLeg  5.84504 14.316 -2.3959
LeftFoot  -5.75905 -0.0084705 0.885756
LeftToes  1.06246e-005 4.65856e-005 -8.18502e-006
2
root  58.9279 40.4804 0.974969 -54.3656 -89.3685 53.7148
RightUpLeg  0.323331 -8.38773 -3.94127
RightLeg  5.16735 -7.04144 4.45991
RightFoot  -3.78889 0.0395447 -1.05519
RightToes  0.00048216 0.542163 -0.142577
Spine  7.29271 1.11982 -2.91284
Spine1  -1.87013 0.538464 3.30733
HEad  6.56587 -5.85013 1.14996
LeftShoulder1  1.05222 -3.70742 -6.92431
LeftArm  -19.7694 22.2028 -12.9519
LeftForeArm  18.6523 -5.61794 -0.0994891
LeftHand  -0.25398 0.0180481 5.50724
RightShoulder  0.393822 -0.713275 6.44573
RightArm  -21.9413 -11.9413 6.97963
RightForeArm  -0.445129 6.73065 2.48125
RightHand  -3.36294 10.3864 -24.819
LeftUpLeg  -0.0195845 4.96267 0.663008
LeftLeg  6.46664 14.2406 -2.07151
LeftFoot  -6.27192 -3.20334e-005 0.853053
LeftToes  1.06246e-005 4.65856e-005 -8.18502e-006
3
root  58.8993 40.4557 1.07312 -101.235 -89.5865 100.358
RightUpLeg  0.526138 -8.43498 -4.04332
RightLeg  5.29684 -6.38721 4.50426
RightFoot  -3.93483 -0.00477901 -0.366598
RightToes  0.00048216 0.542163 -0.142577
Spine  7.34657 1.19469 -2.00999
Spine1  -1.42936 0.798713 2.39334
HEad  6.65001 -5.05845 1.36737
LeftShoulder1  1.08071 -3.67364 -7.44096
LeftArm  -20.9331 22.613 -13.1642
LeftForeArm  18.6404 -7.05017 0.105859
LeftHand  -0.25398 0.0180481 5.50724
RightShoulder  0.411259 -0.671171 6.90256
RightArm  -22.7415 -12.3552 7.88902
RightForeArm  -3.92717 8.00071 2.73866
RightHand  -3.67309 10.7234 -26.45
LeftUpLeg  -0.031311 5.42221 0.596352
LeftLeg  7.37996 14.4012 -1.56877
LeftFoot  -7.41086 0.0213738 0.668827
LeftToes  1.06246e-005 4.65856e-005 -8.18502e-006
4
root  58.8478 40.4301 1.19574 -167.876 -89.1488 166.657
RightUpLeg  0.788816 -8.51994 -4.23903
RightLeg  5.62853 -5.53282 4.51102
RightFoot  -4.22998 -0.0406472 0.190352
RightToes  0.00048216 0.542163 -0.142577
Spine  7.35366 1.39147 -1.26657
Spine1  -0.769608 1.15164 1.66736
HEad  6.97971 -4.18093 1.47371
LeftShoulder1  1.21334 -3.92158 -8.86821
LeftArm  -22.6456 23.538 -13.291
LeftForeArm  18.6462 -9.79197 0.21373
LeftHand  -0.25398 0.0180481 5.50724
RightShoulder  0.457275 -0.510412 7.74734
RightArm  -23.3886 -13.2342 9.11873
RightForeArm  -8.21238 10.3666 3.31845
RightHand  -4.0402 11.3025 -28.0083
LeftUpLeg  0.330798 5.7745 0.514935
LeftLeg  7.94509 14.9581 -1.21309
LeftFoot  -8.77579 0.0446556 0.359168
LeftToes  1.06246e-005 4.65856e-005 -8.18502e-006
5
root  58.779 40.4062 1.32454 -173.25 -88.5681 171.675
RightUpLeg  1.03047 -8.66789 -4.54617
RightLeg  6.12702 -4.69559 4.5055
RightFoot  -4.77047 -0.0713445 0.689631
RightToes  0.00048216 0.542163 -0.142577
Spine  7.3041 1.5613 -1.0139
Spine1  -0.0109214 1.36873 1.44893
HEad  7.30313 -4.12366 1.56583
LeftShoulder1  1.40785 -4.24601 -10.9067
LeftArm  -25.435 25.0037 -13.7832
LeftForeArm  20.1556 -13.8743 -0.22632
LeftHand  -0.25398 0.0180481 5.50724
RightShoulder  0.557364 -0.0993705 8.96895
RightArm  -23.6097 -14.6065 10.5602
RightForeArm  -10.2413 13.6898 3.98126
RightHand  -4.20134 11.6859 -28.4464
LeftUpLeg  0.852938 5.85342 0.339623
LeftLeg  8.22483 15.5931 -1.0012
LeftFoot  -10.1105 0.0589295 0.193413
LeftToes  1.06246e-005 4.65856e-005 -8.18502e-006
6
root  58.6981 40.374 1.46653 -174.283 -88.3369 172.306
RightUpLeg  1.27895 -8.96962 -4.93769
RightLeg  6.82117 -3.94773 4.45486
RightFoot  -5.44921 -0.113322 1.48601
RightToes  0.00048216 0.542163 -0.142577
Spine  7.39363 1.56483 -1.00992
Spine1  0.693701 1.36071 1.4257
HEad  7.50614 -4.79114 1.75017
LeftShoulder1  1.58287 -4.36337 -13.0649
LeftArm  -29.5473 26.7005 -15.0275
LeftForeArm  24.3983 -18.6595 -1.71087
LeftHand  -0.25398 0.0180481 5.50724
RightShoulder  0.710511 0.497023 10.5219
RightArm  -23.36 -16.3524 12.325
RightForeArm  -8.64935 17.7118 4.51618
RightHand  -4.04921 11.5006 -27.7506
LeftUpLeg  1.31614 5.83719 0.0460983
LeftLeg  8.71468 15.8333 -0.717338
LeftFoot  -11.5645 0.0702851 0.277974
LeftToes  1.06246e-005 4.65856e-005 -8.18502e-006
7
root  58.6097 40.3166 1.63072 -175.148 -88.2922 172.684
RightUpLeg  1.34623 -9.8185 -5.30199
RightLeg  8.14924 -2.98536 4.14249
RightFoot  -6.20661 -0.144981 2.28738
RightToes  0.00048216 0.542163 -0.142577
Spine  7.73787 1.47673 -0.963786
Spine1  1.28872 1.27286 1.29041
HEad  7.72942 -5.23061 1.95848
LeftShoulder1  1.75531 -4.41184 -15.3045
LeftArm  -32.1303 28.2598 -16.9338
LeftForeArm  28.818 -23.2975 -3.42612
LeftHand  -0.25398 0.0180481 5.50724
RightShoulder  0.887064 1.06596 12.3644
RightArm  -22.5645 -18.3177 14.4013
RightForeArm  -4.38225 22.1362 5.00271
RightHand  -3.7042 10.8023 -26.5433
LeftUpLeg  1.68035 5.97329 -0.285159
LeftLeg  9.62943 15.5871 -0.301281
LeftFoot  -13.2791 0.0836049 0.256881
LeftToes  1.06246e-005 4.65856e-005 -8.18502e-006
8
root  58.5228 40.2238 1.8083 -175.167 -88.16 172.265
RightUpLeg  0.681611 -11.8718 -5.43593
RightLeg  10.7318 -0.917828 3.20413
RightFoot  -7.15293 -0.143637 2.59106
RightToes  0.00048216 0.542163 -0.142577
Spine  8.15786 1.46766 -1.00636
Spine1  1.86715 1.24614 1.18845
HEad  8.06777 -5.00951 2.03552
LeftShoulder1  2.01976 -4.72795 -17.8597
LeftArm  -31.5917 29.557 -19.1205
LeftForeArm  31.4347 -27.3313 -4.2068
LeftHand  -0.25398 0.0180481 5.50724
RightShoulder  1.07214 1.53045 14.4421
RightArm  -21.1438 -20.2575 16.56
RightForeArm  0.632173 26.3068 5.61387
RightHand  -3.2948 9.7449 -25.3179
LeftUpLeg  1.90361 6.35752 -0.56765
LeftLeg  10.7347 15.1022 0.0789186
LeftFoot  -14.8776 0.0798861 -0.288463
LeftToes  1.06246e-005 4.65856e-005 -8.18502e-006
9
root  58.4483 40.0914 1.98999 -173.954 -87.791 170.735
RightUpLeg  -1.2032 -14.0642 -5.17899
RightLeg  14.9374 1.78821 1.61615
RightFoot  -8.05997 -0.141026 3.05734
RightToes  0.00048216 0.542163 -0.142577
Spine  8.57086 1.5649 -1.3067
Spine1  2.51851 1.265 1.24814
HEad  8.3491 -4.53522 1.95261
LeftShoulder1  2.38847 -5.28586 -20.7022
LeftArm  -30.3721 30.5897 -21.4016
LeftForeArm  34.1887 -30.3543 -4.72399
LeftHand  -0.25398 0.0180481 5.50724
RightShoulder  1.29957 2.05692 16.7007
RightArm  -18.9486 -21.8117 18.7523
RightForeArm  4.3238 29.3175 6.13446
RightHand  -2.89114 8.45681 -24.3234
LeftUpLeg  1.91316 6.99754 -0.765013
LeftLeg  11.9459 14.6105 0.321283
LeftFoot  -15.9092 0.0457078 -1.25316
LeftToes  1.06246e-005 4.65856e-005 -8.18502e-006
10
root  58.3854 39.9229 2.1773 -171.876 -87.0791 168.241
RightUpLeg  -4.25094 -12.2236 -4.96908
RightLeg  20.9741 1.24001 0.138413
RightFoot  -7.98555 -0.198883 4.85407
RightToes  0.00048216 0.542163 -0.142577
Spine  9.29831 1.68941 -1.77604
Spine1  3.2158 1.29855 1.17043
HEad  8.31162 -4.02655 1.78304
LeftShoulder1  2.78065 -5.79462 -23.6045
LeftArm  -29.0074 31.1387 -23.897
LeftForeArm  36.7074 -32.012 -4.97485
LeftHand  -0.25398 0.0180481 5.50724
RightShoulder  1.60806 2.78681 19.0756
RightArm  -16.4957 -22.7355 21.2492
RightForeArm  6.35762 30.609 6.34115
RightHand  -2.47613 7.03466 -23.2425
LeftUpLeg  1.93278 7.84376 -0.970754
LeftLeg  13.3115 14.2862 0.455302
LeftFoot  -16.4901 0.00493402 -2.09225
LeftToes  1.06246e-005 4.65856e-005 -8.18502e-006
11
root  58.3099 39.7331 2.36835 -169.31 -85.95 164.948
RightUpLeg  -8.03112 -7.83883 -5.40776
RightLeg  28.7696 -1.63245 -1.20563
RightFoot  -5.99832 -0.397268 7.52439
RightToes  0.00048216 0.542163 -0.142577
Spine  10.5362 1.81826 -2.28407
Spine1  3.96203 1.38979 0.705376
HEad  7.85276 -3.21756 1.54258
LeftShoulder1  3.17871 -6.21645 -26.5201
LeftArm  -27.6283 30.989 -26.4648
LeftForeArm  38.445 -31.9727 -4.8747
LeftHand  -0.25398 0.0180481 5.50724
RightShoulder  1.95609 3.55445 21.3946
RightArm  -14.3929 -23.0698 24.3827
RightForeArm  8.06569 30.3795 6.18979
RightHand  -1.91897 5.24252 -21.0571
LeftUpLeg  2.30636 8.74364 -1.36149
LeftLeg  14.6764 14.3006 0.555549
LeftFoot  -17.1322 -0.0222635 -2.47304
LeftToes  1.06246e-005 4.65856e-005 -8.18502e-006
